<?xml version="1.0" encoding="utf-8"?>
<!-- Generator: Adobe Illustrator 26.0.3, SVG Export Plug-In . SVG Version: 6.00 Build 0)  -->
<svg version="1.1" id="Layer_1" xmlns="http://www.w3.org/2000/svg" xmlns:xlink="http://www.w3.org/1999/xlink" x="0px" y="0px"
	 viewBox="0 0 596 418.6" style="enable-background:new 0 0 596 418.6;" xml:space="preserve">
<style type="text/css">
	.st0{fill:#FFFFFF;}
</style>
<g>
	<path class="st0" d="M195.4,327.6c-13.6,0-26.9,0-40.1-0.1c-0.8,0-2-1.1-2.4-2c-6.6-13.8-13.1-27.7-19.7-41.6
		c-10.8-22.8-21.5-45.7-32.2-68.5c-0.9-2-2-2.5-4.2-1.8c0,37.8,0,75.7,0,113.8c-13.6,0-26.9,0-40.4,0c0-69.3,0-138.6,0-208.2
		c1-0.1,2-0.2,2.9-0.2c13.6,0,27.2,0,40.8-0.1c2.1,0,3.3,0.5,4.3,2.6c15.2,33.6,30.4,67.1,45.7,100.6c0.3,0.6,0.4,1.4,0.9,1.9
		c0.6,0.5,1.5,1.1,2.1,0.9c0.6-0.2,1.1-1.1,1.4-1.8c0.2-0.6,0.1-1.4,0.1-2.1c0-32.8,0-65.5,0-98.3c0-1.2,0-2.3,0-3.6
		c13.8,0,27.2,0,40.9,0C195.4,188.6,195.4,258,195.4,327.6z M58.8,122c0,67.4,0,133.8,0,201.2c5.7-8.1,10.9-15.4,16-22.8
		c0.4-0.6,0.4-1.7,0.4-2.6c0-51.6,0-103.2,0-154.8c0-0.9-0.1-2.1-0.6-2.8C69.6,134.3,64.4,128.4,58.8,122z M153.6,322.3
		c3.7-5.1,6.9-9.7,10.4-14.1c1.6-2.1,1.8-3.7,0.6-6.1c-9.5-19.3-18.7-38.8-28.2-58.1c-15.1-30.8-30.4-61.5-45.7-92.2
		c-1.7-3.3-3.5-6.6-5.3-9.8c-2.1,1.1-2.5,2.3-2,4.3c3.2,12.8,6.3,25.6,9.5,38.4c1.6,6.4,2.6,13.2,5.3,19.1
		c14,30.7,28.4,61.2,42.7,91.7C145,304.2,149.1,312.9,153.6,322.3z M157.7,123.6c-0.2,0.1-0.4,0.2-0.7,0.4c0,0.7-0.1,1.3-0.1,2
		c0,36.6,0,73.2,0,109.8c0,1,0.1,2,0.3,2.9c4.4,19.4,8.8,38.8,13.2,58.3c0.5,2.4,1.6,2.6,3.7,1.6c0-1.1,0-2.3,0-3.5
		c0-44.9,0-89.9,0-134.8c0-5,1-10.3-0.4-14.8c-1.4-4.4-5.4-7.9-8.3-11.8C162.8,130.4,160.3,127,157.7,123.6z M80.5,144.2
		c6.7-7.8,13.2-15.3,20-23.1c-13.7,0-26.7,0-40.3,0C67.1,128.9,73.6,136.4,80.5,144.2z M157.7,121c5.9,7.9,11.6,15.3,17.5,23.1
		c5.8-7.8,11.3-15.3,17.1-23.1C180.5,121,169.4,121,157.7,121z"/>
	<path class="st0" d="M377.3,167.3c-0.4,16.5-1.6,32.9-5.4,49c-3.1,13.3-8,25.9-16.8,36.6c-10.6,12.8-24.6,19.2-40.9,21.1
		c-11,1.3-21.9,0.7-32.7-2.2c-19-5.1-31.6-17.4-39.7-34.9c-5.6-12.1-8.3-24.9-10-38c-2.4-18.4-2.3-36.8-0.9-55.2
		c1.3-17.4,4.3-34.6,12.6-50.3c8.4-16.1,21.3-26.6,39.2-30.5c16.3-3.6,32.6-3.4,48.6,2.1c15.9,5.4,26.5,16.5,33.5,31.4
		c5.7,12.1,8.7,25,10,38.3C375.9,145.5,376.5,156.4,377.3,167.3z M330.3,168.8c-0.9-13.7-1.5-26.2-2.6-38.6
		c-0.7-7.3-2.4-14.4-5.9-21c-3.9-7.4-10.1-11.3-18.5-11.3c-8.4,0-14.6,3.9-18.3,11.5c-1.6,3.3-2.8,6.8-3.8,10.3
		c-3,10.9-3.5,22.1-3.8,33.3c-0.5,17.3-0.5,34.5,1.7,51.7c0.9,7.4,2.4,14.6,5.8,21.4c3.9,7.6,10,11.6,18.6,11.6
		c8.5,0,15.1-3.7,18.5-11.6c2.4-5.7,4.5-11.7,5.2-17.8C328.7,194.8,329.3,181.2,330.3,168.8z M266.3,240.8c-2.4-5.3-5-10.2-6.7-15.3
		c-1.7-5.1-2.9-10.5-3.9-15.9c-3.3-18.7-3.5-37.5-2.9-56.4c0.3-9.6,1.1-19.2,2.5-28.7c1.8-12.5,5.5-24.4,14.2-34.3
		c-4.5-3.5-8.9-6.9-13.2-10.3c-5.4,4.9-11.1,14.1-14.6,23.3c-6.8,17.9-8.7,36.6-9.2,55.5c-0.6,22.3,0.3,44.5,7.2,65.9
		c2.5,7.7,6.6,14.8,10.1,22.1c0.3,0.7,2,1.5,2.6,1.2C257.2,245.7,261.8,243.2,266.3,240.8z M335.4,92.2c-3.6,5.6-7,10.8-10.3,16.1
		c-0.4,0.7-0.1,2,0.2,3c1.6,6.8,3.9,13.6,4.8,20.5c2.6,20.5,2.3,41.2,1.1,61.8c-0.7,11-1.9,21.9-6.3,32.3c-0.2,0.6,0.1,1.8,0.5,2.2
		c4.2,3.7,8.4,7.2,12.8,11c0.9-1.4,1.6-2.5,2.3-3.7c4.4-8,6.6-16.8,8-25.7c3.3-20.7,3.5-41.5,2.7-62.3c-0.5-12.4-1.8-24.7-5.7-36.6
		C343.5,104,340.5,97.8,335.4,92.2z M270,88.8c22.6-14.9,44.5-14.9,66.8,0c4-3.2,8.3-6.7,12.6-10.2c-20.8-22.4-73.7-20.9-91.8,0.1
		C261.9,82.2,266.2,85.7,270,88.8z M269.8,240.5c11.9,19.5,55.8,19.5,67.1,0c-4.3-3.9-8.7-7.8-13.1-11.7
		c-14.3,14.7-26.8,14.7-40.4,0C278.9,232.6,274.4,236.5,269.8,240.5z"/>
	<path class="st0" d="M495.5,187.5c-1.5-8.3-3.1-16.3-7.5-23.3c-7.6-12.2-23.9-12.2-31.5,0c-4.4,7-6.1,15-7.2,23.1
		c-2.6,19.6-2.2,39.4-1.3,59.1c0.5,9.7,1.3,19.4,4.3,28.7c0.9,2.8,2.2,5.5,3.6,8.1c6,10.8,22.7,12.2,30.4,1.5
		c4.7-6.5,7-13.9,8.8-21.6c0.6-2.4,1-4.8,1.5-7.5c14.3,1.8,28.5,3.6,42.9,5.5c-2.8,15.9-6.9,31-16.1,44.3
		c-5.2,7.6-11.8,13.6-20,17.8c-6.8,3.6-14.2,5.7-21.8,6.4c-12.9,1.2-25.8,0.9-38.1-4.1c-15.4-6.1-25.3-17.6-31.9-32.4
		c-4.5-10.1-7.2-20.8-8.8-31.7c-3.1-20.7-3.6-41.5-1.8-62.3c1.6-17.6,5.1-34.7,13.8-50.3c10-18.1,25.3-29,45.7-31.9
		c13.3-1.9,26.6-1,39.3,3.6c14.8,5.4,24.4,16.2,30.3,30.5c4,9.6,6,19.7,7.2,29.9c0.1,0.7,0,1.4,0,2.3
		C523.5,184.8,509.6,186.2,495.5,187.5z M427.3,136.1c-1.1,1.3-2,2.3-2.9,3.3c-7.1,8.7-11.8,18.8-15.1,29.5
		c-6.1,20.1-7.2,40.7-6.6,61.6c0.4,15.3,1.7,30.5,5.5,45.4c2.4,9.4,5.9,18.3,10.9,26.6c1.1,1.8,2.1,2.2,4,1.1
		c3.9-2.2,7.9-4.2,11.8-6.2c0.7-0.3,1.2-0.8,1.9-1.3c-7.6-11.4-10.4-24.2-12-37.3c-2.8-23.8-3-47.7-0.4-71.6
		c1.1-9.9,3-19.7,7.5-28.6c2.1-4.3,5-8.2,7.6-12.5C435.7,142.9,431.7,139.7,427.3,136.1z M440.2,296c0.7,0.9,1.2,1.7,1.8,2.3
		c1.3,1.3,2.4,2.6,3.9,3.7c14.1,10,29.4,10.1,44.8,4.3c11.2-4.2,16.8-14,20.6-24.8c0.3-0.7-0.2-1.9-0.6-2.7
		c-3.4-5.7-6.8-11.4-10.2-17.1c-0.4-0.7-1-1.3-1.4-1.9c-0.4,0.2-0.5,0.3-0.5,0.3c-0.2,0.9-0.4,1.7-0.6,2.6c-1.9,8-4.1,16-9.2,22.7
		c-8.7,11.6-25.3,11.5-33.9-0.1c-0.3-0.4-0.6-0.7-1.1-1.2C449.1,288,444.8,291.9,440.2,296z M428.5,135c4.3,3.4,8.3,6.7,12.6,10
		c9-8.1,19.8-10.6,31.3-10.8c11.5-0.2,22.3,2.1,31,10.5c4.5-3.5,8.8-6.9,13-10.2C500.7,114.5,450.6,110.6,428.5,135z M498,183.4
		c4.7-6.3,9.2-12.5,13.6-18.6c0.3-0.5,0.4-1.4,0.2-1.9c-1.9-5.4-4.6-10.4-8.9-14.9c-3,4.5-5.7,8.8-8.8,12.7
		c-2.3,2.9-2.6,5.3-0.9,8.7C495.3,173.7,496.4,178.5,498,183.4z M535,263c-0.1-0.2-0.2-0.5-0.3-0.7c-11.3-1.5-22.5-3-34.5-4.6
		c4.5,7.6,8.6,14.7,12.8,21.9C520.6,273.9,527.8,268.5,535,263z"/>
	<path class="st0" d="M224.9,304c1.9-0.8,3-0.4,3.9,1.3c1.9,3.6,3.9,7.1,5.9,10.7c4.2-3.6,4-10.5,10.2-13c0,7.4,0,14,0,20.9
		c-0.8,0-1.6,0.1-2.6,0.2c0-4.6,0-8.9,0-13.2c-0.3-0.1-0.5-0.2-0.8-0.3c-2.1,3.7-4.2,7.5-6.5,11.5c-2.3-4-4.4-7.7-6.5-11.4
		c-0.2,0.1-0.5,0.1-0.7,0.2c0,4.3,0,8.6,0,12.8c-0.3,0.2-0.5,0.5-0.8,0.7c-0.7-0.6-2.1-1.2-2.1-1.8
		C224.8,316.3,224.9,310.1,224.9,304z"/>
	<path class="st0" d="M360.1,323.8c-2.3,0.7-3.4,0.1-3.9-1.8c-0.2-0.6-0.5-1.1-0.8-1.6c-2.7-5.6-3.5-6-10.2-4.6c0,2.6,0,5.2,0,8.1
		c-1,0.1-1.8,0.1-3,0.2c0-3.6,0-6.9,0-10.3c0-3.3,0-6.5,0-10c5.1,0,10-0.3,14.9,0.2c1.3,0.1,3,2.5,3.5,4.1c0.8,2.3,0.1,4.7-2.1,6.3
		c-0.6,0.4-1.4,0.7-2.2,1.2C357.5,318.4,358.8,321,360.1,323.8z M345.2,312.7c3.4,0,6.6,0.3,9.6-0.1c1.2-0.2,2.7-1.9,3.1-3.2
		c0.2-0.7-1.5-2.8-2.5-2.9c-3.4-0.4-6.8-0.1-10.3-0.1C345.2,308.5,345.2,310.4,345.2,312.7z"/>
	<path class="st0" d="M303.5,357.2c0-6.6,0-13.2,0-20c4.7,0,9.3-0.2,13.9,0.1c2.2,0.1,3.8,1.7,4.3,3.9c0.5,2.4,0.2,4.8-1.9,6.5
		c-0.7,0.5-1.5,0.9-2.5,1.5c1.2,2.6,2.5,5.3,3.7,7.9c-0.2,0.3-0.4,0.5-0.6,0.8c-1-0.7-2.2-1.3-3.1-2.1c-0.5-0.4-0.6-1.2-0.9-1.8
		c-2.6-5.5-3.6-6-10.4-4.6c0,2-0.1,4,0,6.1C306.1,357.3,305.4,357.9,303.5,357.2z M306.2,346c3.4,0,6.7,0.3,9.9-0.2
		c1.2-0.2,2.7-2,2.9-3.3c0.1-0.8-1.8-2.7-3-2.8c-3.2-0.4-6.4-0.1-9.8-0.1C306.2,341.9,306.2,343.9,306.2,346z"/>
	<path class="st0" d="M277.3,313.7c0,6.2-4.6,10.8-10.9,10.8c-6.2,0.1-11.2-4.6-11.2-10.6c-0.1-6.1,4.7-10.7,11-10.7
		C272.7,303.2,277.3,307.5,277.3,313.7z M266.3,321.7c4.7,0,8.3-3.3,8.4-7.8c0.1-4.4-3.8-8.2-8.4-8.2c-4.7,0-8.2,3.4-8.2,8
		C258,318.6,261.3,321.7,266.3,321.7z"/>
	<path class="st0" d="M342.2,354.1c0.9-1.6,1.7-2.3,3.3-1c2.9,2.4,6.5,2.3,9.9,1.7c1.9-0.3,3.8-1.3,3.7-3.6c-0.1-2.3-2.1-3-4-3.2
		c-2.1-0.2-4.2,0-6.2-0.1c-2.6-0.1-4.7-1.3-5.4-3.8c-0.8-2.8,0.6-4.8,3-6.2c4-2.4,9.7-1.8,13.7,1.4c-0.4,0.6-0.9,1.2-0.8,1.1
		c-3.5-0.4-6.5-0.9-9.4-0.9c-2,0-3.9,1-3.8,3.3c0.1,2.4,2.2,2.4,4,2.5c2.5,0.1,5,0.1,7.4,0.6c2.5,0.5,4.1,2.2,4.3,5
		c0.2,2.9-1.2,4.8-3.7,5.8C352.4,359,347.1,358.4,342.2,354.1z"/>
	<path class="st0" d="M332.2,313.8c0,6.2-4.7,10.8-11,10.7c-6.2,0-11.1-4.7-11.1-10.7c0-6.1,4.7-10.6,11.1-10.6
		C327.6,303.2,332.2,307.6,332.2,313.8z M321.3,321.7c4.7,0,8.2-3.3,8.3-7.8c0.1-4.5-3.6-8.2-8.3-8.2c-4.7,0-8.4,3.5-8.4,8.1
		C312.9,318.5,316.3,321.7,321.3,321.7z"/>
	<path class="st0" d="M367.6,320.5c0.9-1.8,1.9-1.7,3.3-0.6c3.2,2.3,6.9,2.5,10.5,1.3c1.2-0.4,2.9-2.3,2.8-3.1
		c-0.3-1.3-1.9-2.7-3.2-3.1c-1.9-0.6-4.1-0.2-6.2-0.3c-3.5-0.1-5.7-1.6-6.2-4.4c-0.5-2.5,1.3-5.3,4.4-6.3c4.4-1.4,8.6-0.9,12.5,1.8
		c-0.5,0.8-0.9,1.4-0.8,1.3c-3.7-0.3-6.8-0.8-9.9-0.8c-1.8,0-3.6,1.1-3.4,3.4c0.2,2.3,2.2,2.2,3.9,2.3c2.8,0.3,5.7,0.4,8.5,1
		c2.3,0.5,3.5,2.6,3.3,4.7c-0.2,1.8-1.2,3.9-2.5,5C380.7,325.7,370.9,325.3,367.6,320.5z"/>
	<path class="st0" d="M295.2,357.1c-2.4,0.8-3.2-0.1-3.9-1.8c-0.6-1.6-1.4-4-2.6-4.3c-2.6-0.7-5.6-0.7-8.2,0
		c-1.3,0.3-2.1,2.8-2.8,4.5c-0.8,1.8-1.7,2.5-3.8,1.6c2.9-6.3,5.7-12.7,8.6-18.9c0.8-1.7,3.4-1.8,4.2-0.1
		C289.6,344.4,292.3,350.7,295.2,357.1z M281.1,347.7c2.4,0,4.4,0,6.8,0c-1.1-2.5-2.1-4.7-3.4-7.5
		C283.3,343,282.3,345.2,281.1,347.7z"/>
	<path class="st0" d="M250.1,337.1c4.7,0,8.9-0.2,13.1,0.1c3,0.2,4.9,2.6,4.8,5.7c-0.1,3.2-2,5.4-5,5.6c-2.7,0.2-5.4,0.1-8,0
		c-1.7-0.1-2.3,0.6-2.2,2.2c0.1,2.1,0,4.1,0,6.4c-1.4,0.4-2.6,0.9-2.7-1.3C250.1,349.7,250.1,343.6,250.1,337.1z M252.8,339.6
		c0,1.8-0.2,3.1,0.1,4.3c0.2,0.7,1,1.7,1.6,1.8c2.7,0.2,5.4,0.3,8-0.1c1-0.2,2.7-1.8,2.6-2.7c-0.1-1.2-1.5-3-2.5-3.2
		C259.5,339.4,256.3,339.6,252.8,339.6z"/>
	<path class="st0" d="M295.1,306.2c0,6.1,0,11.9,0,17.5c-2.3,1-2.8,0-2.7-1.8c0-5,0-10.1,0-15.4c-2.5,0-4.7,0-6.9,0
		c-0.9-1.9-0.8-2.8,1.3-2.8c4.6,0,9.1,0,13.7,0.1c0.6,0,1.2,0.8,1.8,1.3c-0.6,0.4-1.2,1.2-1.8,1.2
		C298.9,306.3,297.2,306.2,295.1,306.2z"/>
	<path class="st0" d="M331,357.2c0-6.8,0-13.4,0-20c1.9-0.7,2.7-0.3,2.7,1.8c-0.1,5.4-0.1,10.9,0,16.3
		C333.7,357.4,332.9,357.8,331,357.2z"/>
</g>
</svg>
